HIERARCHY
ROOT Hips
{
	OFFSET 0.0000 0.0000 0.0000
	CHANNELS 6 Xposition Yposition Zposition Zrotation Xrotation Yrotation
	JOINT Ab
	{
		OFFSET -0.0000 8.0846 -0.0000
		CHANNELS 3 Zrotation Xrotation Yrotation
		JOINT Chest
		{
			OFFSET -0.0000 25.0068 -0.0000
			CHANNELS 3 Zrotation Xrotation Yrotation
			JOINT Neck
			{
				OFFSET -0.0000 25.0068 0.0000
				CHANNELS 3 Zrotation Xrotation Yrotation
				JOINT Head
				{
					OFFSET -0.0000 10.7556 0.0000
					CHANNELS 3 Zrotation Xrotation Yrotation
					End Site
					{
						OFFSET -0.0000 16.6222 0.0000
					}
				}
			}
			JOINT LeftCollar
			{
				OFFSET -0.0000 25.0068 0.0000
				CHANNELS 3 Zrotation Xrotation Yrotation
				JOINT LeftShoulder
				{
					OFFSET 19.5556 -0.0000 0.0000
					CHANNELS 3 Zrotation Xrotation Yrotation
					JOINT LeftElbow
					{
						OFFSET 27.1828 0.0000 0.0000
						CHANNELS 3 Zrotation Xrotation Yrotation
						JOINT LeftWrist
						{
							OFFSET 23.3157 0.0000 0.0000
							CHANNELS 3 Zrotation Xrotation Yrotation
							End Site
							{
								OFFSET 0.0000 -14.6667 0.0000
							}
						}
					}
				}
			}
			JOINT RightCollar
			{
				OFFSET -0.0000 25.0068 0.0000
				CHANNELS 3 Zrotation Xrotation Yrotation
				JOINT RightShoulder
				{
					OFFSET -19.5556 0.0000 0.0000
					CHANNELS 3 Zrotation Xrotation Yrotation
					JOINT RightElbow
					{
						OFFSET -27.1828 0.0000 0.0000
						CHANNELS 3 Zrotation Xrotation Yrotation
						JOINT RightWrist
						{
							OFFSET -23.3157 0.0000 0.0000
							CHANNELS 3 Zrotation Xrotation Yrotation
							End Site
							{
								OFFSET -0.0000 -14.6667 0.0000
							}
						}
					}
				}
			}
		}
	}
	JOINT LeftHip
	{
		OFFSET 11.7333 0.0000 0.0000
		CHANNELS 3 Zrotation Xrotation Yrotation
		JOINT LeftKnee
		{
			OFFSET -0.0000 -40.8688 0.0000
			CHANNELS 3 Zrotation Xrotation Yrotation
			JOINT LeftAnkle
			{
				OFFSET -0.0000 -44.4337 0.0000
				CHANNELS 3 Zrotation Xrotation Yrotation
				End Site
				{
					OFFSET -0.0000 -4.8889 16.6222
				}
			}
		}
	}
	JOINT RightHip
	{
		OFFSET -11.7333 0.0000 0.0000
		CHANNELS 3 Zrotation Xrotation Yrotation
		JOINT RightKnee
		{
			OFFSET -0.0000 -40.8688 0.0000
			CHANNELS 3 Zrotation Xrotation Yrotation
			JOINT RightAnkle
			{
				OFFSET -0.0000 -44.4337 0.0000
				CHANNELS 3 Zrotation Xrotation Yrotation
				End Site
				{
					OFFSET -0.0000 -4.8889 16.6222
				}
			}
		}
	}
}
MOTION
Frames: 10
Frame Time: 0.010000
-5.7578 88.8236 187.8787 2.6949 359.0952 176.1508 1.5757 359.0371 358.4740 358.3128 12.7393 358.6494 1.3102 358.2827 1.1790 1.0305 24.4993 0.9269 339.5877 358.5031 8.3796 301.5475 32.5830 353.0787 17.1679 354.2752 323.3179 82.2732 0.9477 343.2814 22.4720 359.3809 356.8419 59.6668 43.9245 9.4883 336.9570 354.0807 28.3505 277.0087 353.6091 17.4498 0.7569 356.6141 358.1583 359.1450 10.8001 357.1558 358.9794 352.5227 21.6723 0.3499 350.0342 0.9340 358.8356 19.3166 9.3075 359.0777 345.4946 338.3464 
-5.7713 88.8248 187.8660 2.6877 359.0975 176.1615 1.5607 359.0627 358.4635 358.3137 12.7152 358.6388 1.3292 358.2859 1.1513 0.9938 24.5120 0.9125 339.5847 358.4820 8.4163 301.5412 32.7447 353.0559 17.2874 354.2255 323.3748 82.2616 0.9269 343.4007 22.4720 359.3600 356.8256 59.6882 43.9545 9.4578 336.9032 354.0849 28.3520 277.0352 353.5480 17.3798 0.7448 356.5940 358.1302 359.1379 10.8490 357.1300 359.1073 352.4589 21.7059 0.3243 350.0502 0.9025 358.8417 19.3041 9.3041 359.0451 345.5010 338.3682 
-5.7859 88.8250 187.8583 2.6812 359.0881 176.1686 1.5308 359.0628 358.4593 358.3368 12.7330 358.6336 1.3431 358.2714 1.1404 0.9812 24.4900 0.9026 339.5808 358.4919 8.3963 301.5017 32.6665 353.0886 17.2071 354.2601 323.3546 82.3391 0.9481 343.3544 22.4636 359.3828 356.8094 59.6329 43.9298 9.5220 336.9443 354.1065 28.2327 277.0029 353.2307 17.1391 0.7294 356.5635 358.1496 359.1393 10.8952 357.0814 359.1054 352.4244 21.7255 0.3059 350.0546 0.9503 358.8562 19.2886 9.2597 359.0847 345.4611 338.3521 
-5.8027 88.8245 187.8464 2.6788 359.0790 176.1708 1.5023 359.0686 358.4636 358.3629 12.7265 358.6351 1.3292 358.2880 1.1138 1.0072 24.4573 0.8702 339.5679 358.4767 8.3993 301.4728 32.7663 353.1192 17.2995 354.2215 323.3568 82.2787 0.9545 343.4644 22.4567 359.3673 356.7995 59.6307 43.9267 9.5154 336.9261 354.1239 28.2868 277.0142 353.2841 17.2491 0.7193 356.5258 358.1201 359.1261 10.9602 357.0944 359.1326 352.3915 21.7333 0.2891 350.0651 0.9663 358.8666 19.2625 9.2218 359.1468 345.4157 338.3454 
-5.8205 88.8249 187.8323 2.6715 359.0739 176.1637 1.4618 359.0723 358.4712 358.3984 12.7323 358.6389 1.3310 358.2936 1.0883 1.0023 24.4419 0.8446 339.5522 358.4899 8.3799 301.4311 32.6907 353.1526 17.2244 354.2829 323.3658 82.3306 0.9194 343.3640 22.4516 359.3694 356.7840 59.6010 43.9285 9.5301 337.0536 354.1357 28.3879 276.8727 353.5843 17.7266 0.7042 356.5014 358.1160 359.1099 11.0139 357.1018 359.1140 352.3600 21.7537 0.2702 350.0761 0.9995 358.8780 19.2540 9.1918 359.1448 345.4433 338.4050 
-5.8394 88.8247 187.8183 2.6753 359.0756 176.1597 1.4286 359.0785 358.4800 358.4373 12.7646 358.6444 1.3267 358.2506 1.0661 1.0209 24.4509 0.8080 339.5409 358.4914 8.3725 301.3994 32.6968 353.1559 17.2274 354.2499 323.3370 82.3395 0.9604 343.3679 22.4310 359.3531 356.7687 59.6019 43.9347 9.5403 337.0099 354.1185 28.4061 276.9423 353.5732 17.7245 0.7000 356.4364 358.0394 359.0770 11.1536 357.1649 359.1538 352.2817 21.7796 0.2601 350.0939 1.0125 358.8782 19.2366 9.1813 359.1823 345.4195 338.4259 
-5.8610 88.8254 187.8033 2.6740 359.0717 176.1498 1.4098 359.0921 358.4848 358.4422 12.7642 358.6486 1.3388 358.2399 1.0387 1.0347 24.4566 0.7928 339.5453 358.4777 8.3523 301.3181 32.6112 353.2133 17.2240 354.2294 323.2281 82.2950 1.1250 343.4485 22.4332 359.3485 356.7576 59.6004 43.9407 9.5350 337.0190 354.1154 28.4063 276.9364 353.5485 17.7450 0.6874 356.4187 358.0316 359.0636 11.1980 357.1885 359.1453 352.2412 21.7821 0.2429 350.1074 1.0438 358.8867 19.2200 9.1491 359.1877 345.4257 338.4492 
-5.8837 88.8264 187.7903 2.6748 359.0605 176.1360 1.3988 359.1116 358.4919 358.4402 12.7446 358.6563 1.3383 358.2444 1.0194 1.0527 24.4543 0.7699 339.5434 358.4912 8.3399 301.2605 32.5156 353.2548 17.1628 354.2511 323.1699 82.2677 1.2347 343.4720 22.4394 359.3691 356.7672 59.6181 43.8702 9.5040 337.1796 354.1823 28.2565 276.6310 353.0101 18.1416 0.6779 356.4078 358.0300 359.0534 11.2166 357.1929 359.1442 352.2223 21.8041 0.2280 350.1025 1.0578 358.8950 19.2160 9.1230 359.9631 345.2942 338.6314 
-5.9112 88.8263 187.7786 2.6778 359.0399 176.1272 1.4019 359.1226 358.4917 358.4258 12.7232 358.6576 1.3112 358.4531 0.8494 1.0630 24.3450 0.6180 339.5534 358.4854 8.3109 301.1739 32.3913 353.3349 17.1130 354.2573 323.0990 82.2470 1.2611 343.3860 22.4446 359.3704 356.7809 59.6286 43.8543 9.4658 337.1679 354.1970 28.2473 276.6106 352.8522 18.2278 0.6661 356.3923 358.0393 359.0469 11.2218 357.1963 359.1851 352.2264 21.7983 0.2080 350.0923 1.0827 358.9025 19.2206 9.1318 359.4666 345.3585 338.5268 
-5.9409 88.8252 187.7614 2.6809 359.0356 176.1094 1.3996 359.1390 358.4938 358.4139 12.7188 358.6591 1.3023 358.5131 0.7993 1.0799 24.3268 0.5623 339.5559 358.4762 8.3203 301.1207 32.3928 353.3813 17.1155 354.2538 323.0863 82.2412 1.2447 343.3746 22.4409 359.3593 356.8058 59.6568 43.8325 9.4179 337.1588 354.1718 28.2778 276.6404 352.8091 18.2348 0.6514 356.3908 358.0522 359.0414 11.2433 357.1885 359.1790 352.1858 21.8253 0.1847 350.0994 1.0944 358.9163 19.2126 9.1245 359.2229 345.3936 338.4508 
